<svg xmlns="http://www.w3.org/2000/svg" width="24" height="24" viewBox="0 0 24 24"><defs><clipPath id="u8bva"><path fill="#fff" d="M2 12C2 6.477 6.477 2 12 2s10 4.477 10 10-4.477 10-10 10S2 17.523 2 12z"/></clipPath></defs><g><g><path fill="#fff" d="M7 12a5 5 0 1 1 10 0 5 5 0 0 1-10 0z"/></g><g><path fill="none" stroke="#fff" stroke-miterlimit="20" stroke-width="2" d="M2 12C2 6.477 6.477 2 12 2s10 4.477 10 10-4.477 10-10 10S2 17.523 2 12z" clip-path="url(&quot;#u8bva&quot;)"/></g><g><path fill="none" stroke="#fff" stroke-linecap="round" stroke-miterlimit="20" d="M1 12h3"/></g><g><path fill="none" stroke="#fff" stroke-linecap="round" stroke-miterlimit="20" d="M12 4V1"/></g><g><path fill="none" stroke="#fff" stroke-linecap="round" stroke-miterlimit="20" d="M12 23v-3"/></g><g><path fill="none" stroke="#fff" stroke-linecap="round" stroke-miterlimit="20" d="M20 12h3"/></g></g></svg>