<svg xmlns="http://www.w3.org/2000/svg" width="28" height="22" viewBox="0 0 28 22">
  <g id="like" transform="translate(0 -2.522)">
    <path id="Path_59" data-name="Path 59" d="M6.027,21.722a.913.913,0,1,0-.946-.912A.93.93,0,0,0,6.027,21.722Z" fill="#519eeb"/>
    <path id="Path_60" data-name="Path 60" d="M27.432,15.914a2.082,2.082,0,0,0-.389-1.211A2.124,2.124,0,0,0,28,12.94,2.185,2.185,0,0,0,25.781,10.8H19.946l.369-.8a8.809,8.809,0,0,0,.819-3.7s0-1.564,0-1.573a2.246,2.246,0,0,0-2.281-2.2A2.273,2.273,0,0,0,16.74,3.9c-.015.037-.546,1.548-.546,1.548A7.808,7.808,0,0,1,13.738,8.9l-2.707,2.188H9.467v-.69A1.34,1.34,0,0,0,8.106,9.078H1.361A1.34,1.34,0,0,0,0,10.393V23.207a1.34,1.34,0,0,0,1.361,1.315H8.106a1.34,1.34,0,0,0,1.361-1.315V22.178h.854l.848.4a15.4,15.4,0,0,0,6.473,1.432h6.435a2.185,2.185,0,0,0,2.22-2.144,2.082,2.082,0,0,0-.389-1.211,2.124,2.124,0,0,0,.957-1.762,2.082,2.082,0,0,0-.389-1.212A2.124,2.124,0,0,0,27.432,15.914ZM8.106,23.207H1.361V10.393H8.106V23.207ZM25.781,13.77h-.968a.658.658,0,1,0,0,1.315h.4a.83.83,0,1,1,0,1.659h-.968a.658.658,0,1,0,0,1.315h.4a.83.83,0,1,1,0,1.659h-.968a.658.658,0,1,0,0,1.315h.4a.83.83,0,1,1,0,1.659H17.643a13.988,13.988,0,0,1-5.881-1.3l-.988-.462a.7.7,0,0,0-.3-.066H9.467V12.4h1.812a.7.7,0,0,0,.437-.153l2.9-2.341a9.123,9.123,0,0,0,2.87-4.028s.541-1.523.545-1.533a.92.92,0,0,1,.831-.506.906.906,0,0,1,.92.889c0,.009,0,1.57,0,1.57a7.537,7.537,0,0,1-.7,3.163l-.792,1.717a.633.633,0,0,0-.029.459.692.692,0,0,0,.653.475h6.877a.83.83,0,1,1,0,1.659Z" fill="#519eeb"/>
  </g>
</svg>
