<svg xmlns="http://www.w3.org/2000/svg" width="20" height="22" viewBox="0 0 20 22">
  <g id="Share" transform="translate(-1.215)">
    <path id="Path_61" data-name="Path 61" d="M17.611,14.785a3.6,3.6,0,0,0-2.832,1.38L8.164,12.342a3.6,3.6,0,0,0,0-2.684l6.615-3.823a3.6,3.6,0,1,0-.512-.885L7.652,8.773a3.608,3.608,0,1,0,0,4.455l6.615,3.823a3.6,3.6,0,1,0,3.345-2.265Zm0-13.762a2.585,2.585,0,1,1-2.582,2.585A2.586,2.586,0,0,1,17.611,1.023ZM4.82,13.585A2.585,2.585,0,1,1,7.4,11,2.586,2.586,0,0,1,4.82,13.585Zm12.792,7.392a2.585,2.585,0,1,1,2.582-2.585A2.586,2.586,0,0,1,17.611,20.977Z" fill="#519eeb"/>
    <path id="Path_62" data-name="Path 62" d="M5.643,11.634A1.869,1.869,0,0,0,3.777,13.5a.628.628,0,0,0,1.255,0,.612.612,0,0,1,.611-.611.628.628,0,1,0,0-1.255Z" transform="translate(0 -2.374)" fill="#519eeb"/>
  </g>
</svg>
