<svg id="Share" xmlns="http://www.w3.org/2000/svg" width="21.006" height="22" viewBox="0 0 21.006 22">
  <path id="Path_61" data-name="Path 61" d="M18.436,14.785a3.849,3.849,0,0,0-2.974,1.38L8.514,12.342a3.439,3.439,0,0,0,0-2.684l6.947-3.823a3.849,3.849,0,0,0,2.974,1.38,3.7,3.7,0,0,0,3.785-3.608,3.79,3.79,0,0,0-7.571,0,3.44,3.44,0,0,0,.273,1.342L7.976,8.773A3.849,3.849,0,0,0,5,7.392,3.7,3.7,0,0,0,1.215,11,3.7,3.7,0,0,0,5,14.608a3.849,3.849,0,0,0,2.975-1.38l6.947,3.823a3.44,3.44,0,0,0-.273,1.342,3.79,3.79,0,0,0,7.571,0A3.7,3.7,0,0,0,18.436,14.785Zm0-13.762a2.654,2.654,0,0,1,2.712,2.585,2.715,2.715,0,0,1-5.424,0A2.654,2.654,0,0,1,18.436,1.023ZM5,13.585A2.654,2.654,0,0,1,2.289,11,2.654,2.654,0,0,1,5,8.415,2.654,2.654,0,0,1,7.713,11,2.654,2.654,0,0,1,5,13.585Zm13.435,7.392a2.588,2.588,0,1,1,2.712-2.585A2.654,2.654,0,0,1,18.436,20.977Z" transform="translate(-1.215)" fill="#519eeb"/>
  <path id="Path_62" data-name="Path 62" d="M5.737,11.634A1.917,1.917,0,0,0,3.777,13.5a.66.66,0,0,0,1.319,0,.628.628,0,0,1,.642-.611.629.629,0,1,0,0-1.255Z" transform="translate(-1.087 -2.374)" fill="#519eeb"/>
</svg>
