<svg xmlns="http://www.w3.org/2000/svg" width="16" height="14" viewBox="0 0 16 14">
  <g id="speak" transform="translate(0 4.001)">
    <path id="Path_18" data-name="Path 18" d="M15.687,1.589a.329.329,0,0,0-.312.343V3.156a1.222,1.222,0,0,1-1.159,1.274H12.434a.3.3,0,0,0-.221.1L10.054,6.9V4.774a.329.329,0,0,0-.312-.343H5.267A1.222,1.222,0,0,1,4.108,3.156v-5.2A1.222,1.222,0,0,1,5.267-3.314h8.948A1.222,1.222,0,0,1,15.375-2.04V-.816a.329.329,0,0,0,.312.343A.329.329,0,0,0,16-.816V-2.04A1.881,1.881,0,0,0,14.216-4H5.267A1.881,1.881,0,0,0,3.483-2.04V2.373H1.209A1.275,1.275,0,0,0,0,3.7V6.867A1.275,1.275,0,0,0,1.209,8.2h.956L3.713,9.9a.3.3,0,0,0,.221.1.288.288,0,0,0,.12-.026.345.345,0,0,0,.193-.317V8.2H6.66A1.274,1.274,0,0,0,7.869,6.867V5.118h1.56V7.734a.345.345,0,0,0,.193.317.287.287,0,0,0,.12.026.3.3,0,0,0,.221-.1l2.6-2.859h1.652A1.881,1.881,0,0,0,16,3.157V1.932a.329.329,0,0,0-.312-.343ZM7.244,6.867a.616.616,0,0,1-.584.642H3.934a.329.329,0,0,0-.312.343v.974L2.515,7.61a.3.3,0,0,0-.221-.1H1.209a.616.616,0,0,1-.584-.642V3.7a.616.616,0,0,1,.584-.642H3.483v.1A1.881,1.881,0,0,0,5.267,5.118H7.244Zm0,0" transform="translate(0 0)" fill="#519eeb"/>
    <path id="Path_19" data-name="Path 19" d="M261.831,77.914h-6.22a.319.319,0,0,0,0,.638h6.22a.319.319,0,1,0,0-.638Zm0,0" transform="translate(-249.006 -79.655)" fill="#519eeb"/>
    <path id="Path_20" data-name="Path 20" d="M262.15,145.737a.319.319,0,0,0-.319-.319h-6.219a.319.319,0,1,0,0,.638h6.219A.319.319,0,0,0,262.15,145.737Zm0,0" transform="translate(-249.006 -145.297)" fill="#519eeb"/>
    <path id="Path_21" data-name="Path 21" d="M255.612,212.918a.319.319,0,0,0,0,.638H259.2a.319.319,0,0,0,0-.638Zm0,0" transform="translate(-248.957 -210.936)" fill="#519eeb"/>
    <path id="Path_22" data-name="Path 22" d="M615.319,149.4a.319.319,0,1,0,.319.319A.32.32,0,0,0,615.319,149.4Zm0,0" transform="translate(-599.638 -149.172)" fill="#519eeb"/>
  </g>
</svg>
