<?xml version="1.0" encoding="utf-8"?><svg xmlns="http://www.w3.org/2000/svg" xmlns:xlink="http://www.w3.org/1999/xlink"><symbol viewBox="0 0 21 20" id="arrow-alt-circle-down" xmlns="http://www.w3.org/2000/svg"><path d="M9.197 4.901h2.58c.267 0 .485.218.485.484v4.678h2.855c.431 0 .649.52.342.826l-4.633 4.609a.48.48 0 01-.681 0l-4.633-4.609a.484.484 0 01.342-.826h2.86V5.385c0-.266.217-.484.483-.484zm1.29-4.838c-5.524 0-10 4.475-10 10 0 5.524 4.476 10 10 10 5.525 0 10-4.476 10-10 0-5.525-4.475-10-10-10z"/></symbol><symbol viewBox="0 0 344.96 344.96" id="check" xmlns="http://www.w3.org/2000/svg"><g data-name="Слой 2"><path d="M321.85 86.24l-40-23.11-23.1-40H212.5L172.48 0l-40 23.11H86.24l-23.11 40-40 23.1v46.21L0 172.48l23.11 40v46.21l40 23.11 23.11 40h46.21l40 23.1 40-23.11h46.21l23.11-40 40-23.11V212.5l23.11-40-23.11-40V86.24zM156.91 243.07a16.79 16.79 0 01-23.34 0l-50.45-50.44a16.19 16.19 0 010-22.89l13.35-13.35a16.19 16.19 0 0122.89 0l25.87 25.87 80.34-80.35a16.19 16.19 0 0122.89 0l13.35 13.35a16.19 16.19 0 010 22.89z" data-name="Capa 1"/></g></symbol><symbol viewBox="0 0 24 24" id="clock" xmlns="http://www.w3.org/2000/svg"><path d="M23 12c0 6.075-4.925 11-11 11S1 18.075 1 12 5.925 1 12 1s11 4.925 11 11z"/><path d="M12 7v6l4 2"/></symbol><symbol viewBox="0 0 24 24" id="geolocation" xmlns="http://www.w3.org/2000/svg"><defs><clipPath id="da"><path d="M2 12C2 6.477 6.477 2 12 2s10 4.477 10 10-4.477 10-10 10S2 17.523 2 12z"/></clipPath></defs><path d="M7 12a5 5 0 1110 0 5 5 0 01-10 0z"/><path d="M2 12C2 6.477 6.477 2 12 2s10 4.477 10 10-4.477 10-10 10S2 17.523 2 12z" clip-path="url(#da)"/><path d="M1 12h3m8-8V1m0 22v-3m8-8h3"/></symbol><symbol viewBox="0 0 26 24" id="icon_feather-star" xmlns="http://www.w3.org/2000/svg"><path d="M13 1l3.708 7.24L25 9.41l-6 5.633L20.416 23 13 19.24 5.584 23 7 15.042 1 9.409l8.292-1.168z"/></symbol><symbol viewBox="0 0 25 22" id="icon_material-add-a-photo" xmlns="http://www.w3.org/2000/svg"><path d="M14.13 10.267c1.924 0 3.479 1.498 3.479 3.352 0 1.854-1.555 3.352-3.479 3.352-1.923 0-3.478-1.498-3.478-3.352 0-1.854 1.555-3.352 3.478-3.352zm0 8.59c3 0 5.435-2.347 5.435-5.238 0-2.891-2.435-5.238-5.435-5.238-3 0-5.434 2.347-5.434 5.238 0 2.891 2.434 5.238 5.434 5.238zM6.522 9.43V6.286h3.26V3.143h7.61l1.988 2.095h3.446c1.196 0 2.174.943 2.174 2.095v12.572C25 21.057 24.022 22 22.826 22H5.435c-1.196 0-2.174-.943-2.174-2.095V9.429zM3.26 3.143V0h2.174v3.143h3.26v2.095h-3.26v3.143H3.26V5.238H0V3.143z"/></symbol><symbol viewBox="0 0 18 22" id="map_marker" xmlns="http://www.w3.org/2000/svg"><path d="M9 0C4 0 0 4 0 9c0 7 9 13 9 13s9-6 9-13c0-5-4-9-9-9zm0 14.3c-6.4 0-6.4-10 0-10 6.5 0 6.4 10 0 10z"/></symbol><symbol viewBox="0 0 20 20" id="menu" xmlns="http://www.w3.org/2000/svg"><path d="M0 7.368V0h7.369v7.368zm12.632 0V0H20v7.368zM0 20v-7.368h7.369V20zm12.632 0v-7.368H20V20z"/></symbol><symbol viewBox="0 0 15 15" id="search" xmlns="http://www.w3.org/2000/svg"><defs><clipPath id="ia"><path d="M0 5.126a5.126 5.126 0 1110.253 0A5.126 5.126 0 010 5.126z"/></clipPath></defs><path d="M10.838 10.838L14 14"/><path d="M0 5.126a5.126 5.126 0 1110.253 0A5.126 5.126 0 010 5.126z" clip-path="url(#ia)"/></symbol><symbol viewBox="0 0 18 20" id="share" xmlns="http://www.w3.org/2000/svg"><path d="M14.143 12.5a3.91 3.91 0 00-2.402.816l-4.118-2.502a3.67 3.67 0 000-1.628l4.118-2.502a3.91 3.91 0 002.402.816C16.273 7.5 18 5.821 18 3.75 18 1.679 16.273 0 14.143 0s-3.857 1.679-3.857 3.75c0 .28.031.552.091.814L6.26 7.066a3.91 3.91 0 00-2.402-.816C1.727 6.25 0 7.929 0 10c0 2.071 1.727 3.75 3.857 3.75a3.91 3.91 0 002.402-.816l4.118 2.502c-.06.267-.091.54-.091.814 0 2.071 1.727 3.75 3.857 3.75S18 18.321 18 16.25c0-2.071-1.727-3.75-3.857-3.75z"/></symbol><symbol viewBox="0 0 16 14" id="speak" xmlns="http://www.w3.org/2000/svg"><path data-name="Path 18" d="M15.687 5.59a.329.329 0 00-.312.343v1.224a1.222 1.222 0 01-1.159 1.274h-1.782a.3.3 0 00-.221.1l-2.159 2.37V8.775a.329.329 0 00-.312-.343H5.267a1.222 1.222 0 01-1.159-1.275v-5.2A1.222 1.222 0 015.267.687h8.948a1.222 1.222 0 011.16 1.274v1.224a.329.329 0 00.312.343.329.329 0 00.313-.343V1.961a1.881 1.881 0 00-1.784-1.96H5.267a1.881 1.881 0 00-1.784 1.96v4.413H1.209A1.275 1.275 0 000 7.701v3.167a1.275 1.275 0 001.209 1.333h.956l1.548 1.7a.3.3 0 00.221.1.288.288 0 00.12-.026.345.345 0 00.193-.317v-1.457H6.66a1.274 1.274 0 001.209-1.333V9.119h1.56v2.616a.345.345 0 00.193.317.287.287 0 00.12.026.3.3 0 00.221-.1l2.6-2.859h1.652A1.881 1.881 0 0016 7.158V5.933a.329.329 0 00-.312-.343zm-8.443 5.278a.616.616 0 01-.584.642H3.934a.329.329 0 00-.312.343v.974l-1.107-1.216a.3.3 0 00-.221-.1H1.209a.616.616 0 01-.584-.642V7.701a.616.616 0 01.584-.642h2.274v.1a1.881 1.881 0 001.784 1.96h1.977zm0 0"/><path data-name="Path 19" d="M12.825 2.26h-6.22a.319.319 0 000 .638h6.22a.319.319 0 100-.638zm0 0"/><path data-name="Path 20" d="M13.144 4.441a.319.319 0 00-.319-.319H6.606a.319.319 0 100 .638h6.219a.319.319 0 00.319-.319zm0 0"/><path data-name="Path 21" d="M6.655 5.983a.319.319 0 000 .638h3.588a.319.319 0 000-.638zm0 0"/><path data-name="Path 22" d="M15.681 4.229a.319.319 0 10.319.319.32.32 0 00-.319-.319zm0 0"/></symbol><symbol viewBox="0 0 20 20" id="user" xmlns="http://www.w3.org/2000/svg"><path d="M20 17.5v.625C20 19.16 19.16 20 18.125 20H1.875A1.875 1.875 0 010 18.125V17.5a5 5 0 015-5h2.152a6.807 6.807 0 005.695 0H15a5 5 0 015 5zM4.375 5.625A5.626 5.626 0 0110 0a5.626 5.626 0 015.625 5.625A5.626 5.626 0 0110 11.25a5.626 5.626 0 01-5.625-5.625z"/></symbol><symbol viewBox="0 0 22 22" id="user-circle" xmlns="http://www.w3.org/2000/svg"><path d="M11 19.516a8.5 8.5 0 01-6.498-3.025c.834-1.57 2.466-2.652 4.369-2.652.106 0 .213.017.315.049.576.186 1.18.306 1.814.306a5.85 5.85 0 001.814-.306c.102-.032.209-.05.315-.05 1.903 0 3.535 1.083 4.369 2.653A8.5 8.5 0 0111 19.516zm0-15.258a3.903 3.903 0 110 7.807 3.903 3.903 0 010-7.807zM11 0C4.923 0 0 4.923 0 11s4.923 11 11 11 11-4.923 11-11S17.077 0 11 0z"/></symbol></svg>