<svg xmlns="http://www.w3.org/2000/svg" width="25" height="22" viewBox="0 0 25 22"><g><g><path fill="#519eeb" d="M14.13 10.267c1.924 0 3.479 1.498 3.479 3.352 0 1.854-1.555 3.352-3.479 3.352-1.923 0-3.478-1.498-3.478-3.352 0-1.854 1.555-3.352 3.478-3.352zm0 8.59c3 0 5.435-2.347 5.435-5.238 0-2.891-2.435-5.238-5.435-5.238-3 0-5.434 2.347-5.434 5.238 0 2.891 2.434 5.238 5.434 5.238zM6.522 9.43V6.286h3.26V3.143h7.61l1.988 2.095h3.446c1.196 0 2.174.943 2.174 2.095v12.572C25 21.057 24.022 22 22.826 22H5.435c-1.196 0-2.174-.943-2.174-2.095V9.429zM3.26 3.143V0h2.174v3.143h3.26v2.095h-3.26v3.143H3.26V5.238H0V3.143z"/></g></g></svg>