<svg xmlns="http://www.w3.org/2000/svg" width="18" height="20" viewBox="0 0 18 20"><g><g><path fill="#fff" d="M14.143 12.5a3.91 3.91 0 0 0-2.402.816l-4.118-2.502a3.67 3.67 0 0 0 0-1.628l4.118-2.502a3.91 3.91 0 0 0 2.402.816C16.273 7.5 18 5.821 18 3.75 18 1.679 16.273 0 14.143 0s-3.857 1.679-3.857 3.75c0 .28.031.552.091.814L6.26 7.066a3.91 3.91 0 0 0-2.402-.816C1.727 6.25 0 7.929 0 10c0 2.071 1.727 3.75 3.857 3.75a3.91 3.91 0 0 0 2.402-.816l4.118 2.502c-.06.267-.091.54-.091.814 0 2.071 1.727 3.75 3.857 3.75S18 18.321 18 16.25c0-2.071-1.727-3.75-3.857-3.75z"/></g></g></svg>